<?xml version="1.0" standalone="no"?>
<!DOCTYPE svg PUBLIC "-//W3C//DTD SVG 20010904//EN"
 "http://www.w3.org/TR/2001/REC-SVG-20010904/DTD/svg10.dtd">
<svg version="1.0" xmlns="http://www.w3.org/2000/svg"
 width="128.000000pt" height="128.000000pt" viewBox="0 0 128.000000 128.000000"
 preserveAspectRatio="xMidYMid meet">

<g transform="translate(0.000000,128.000000) scale(0.100000,-0.100000)"
fill="#000000" stroke="none">
<path d="M314 1167 c-3 -8 -4 -104 -2 -215 l3 -202 -102 0 -103 0 0 -110 0
-110 535 0 535 0 0 110 0 110 -110 0 -110 0 0 215 0 215 -320 0 c-257 0 -322
-3 -326 -13z m426 -312 l0 -105 -100 0 -100 0 0 105 0 105 100 0 100 0 0 -105z"/>
<path d="M104 317 c-2 -7 -3 -58 -2 -113 l3 -99 532 -3 533 -2 0 115 0 115
-530 0 c-431 0 -532 -2 -536 -13z"/>
</g>
</svg>
